# xmcd CD database file
#
# Track frame offsets:
#	150
#	22210
#	35945
#	51325
#	68543
#	87230
#	109655
#	127730
#	137043
#	153828
#	169660
#	187570
#	204663
#	223943
#	245305
#	265195
#
# Disc length: 3778 seconds
#
# Revision: 2
# Processed by: cddbd v1.5PL3 Copyright (c) Steve Scherf et al.
# Submitted via: CDex 1.51
#
DISCID=dd0ec010
DTITLE=GODIEGO - NEW MUSIC BEST CHOICE
DYEAR=1900
DGENRE=Pop
TTITLE0=IF YOU ARE PASSING BY THAT WAY
TTITLE1=SALAD GIRL
TTITLE2=HAPPINESS
TTITLE3=TRY TO WAKE UP A MORNING
TTITLE4=GANDHARA
TTITLE5=THE BIRTH OF THE ODYSSEY - MONKEY MAGIC
TTITLE6=HOLY AND BRIGHT
TTITLE7=THANK YOU,BABY
TTITLE8=BEAUTIFUL NAME
TTITLE9=THE GALAXY EXPRESS 999
TTITLE10=COMING TOGETHER IN KATHMANDU
TTITLE11=NAMASTE
TTITLE12=RETURN TO AFRICA
TTITLE13=PORTOPIA
TTITLE14=MAGIC CAPSULE
TTITLE15=CARRY LOVE
EXTD=
EXTT0=
EXTT1=
EXTT2=
EXTT3=
EXTT4=
EXTT5=
EXTT6=
EXTT7=
EXTT8=
EXTT9=
EXTT10=
EXTT11=
EXTT12=
EXTT13=
EXTT14=
EXTT15=
PLAYORDER=
